<svg xmlns="http://www.w3.org/2000/svg" viewBox="0 0 128 128" width="128" height="128">
  <defs>
    <linearGradient id="grad1" x1="0%" y1="0%" x2="100%" y2="100%">
      <stop offset="0%" style="stop-color:#4FC3F7;stop-opacity:1" />
      <stop offset="100%" style="stop-color:#29B6F6;stop-opacity:1" />
    </linearGradient>
  </defs>

  <!-- 背景圆角矩形 -->
  <rect x="4" y="4" width="120" height="120" rx="20" ry="20" fill="url(#grad1)" stroke="#1976D2" stroke-width="4"/>

  <!-- JSON大括号 -->
  <path d="M30 35 Q25 35 25 40 L25 50 Q25 55 20 55 Q25 55 25 60 L25 70 Q25 75 30 75"
        stroke="white" stroke-width="6" fill="none" stroke-linecap="round"/>
  <path d="M98 35 Q103 35 103 40 L103 50 Q103 55 108 55 Q103 55 103 60 L103 70 Q103 75 98 75"
        stroke="white" stroke-width="6" fill="none" stroke-linecap="round"/>

  <!-- 中间的数据图标 -->
  <rect x="45" y="45" width="38" height="4" fill="white" rx="2"/>
  <rect x="45" y="55" width="30" height="4" fill="white" rx="2"/>
  <rect x="45" y="65" width="34" height="4" fill="white" rx="2"/>
  <rect x="45" y="75" width="26" height="4" fill="white" rx="2"/>

  <!-- 装饰点 -->
  <circle cx="40" cy="47" r="2" fill="white"/>
  <circle cx="40" cy="57" r="2" fill="white"/>
  <circle cx="40" cy="67" r="2" fill="white"/>
  <circle cx="40" cy="77" r="2" fill="white"/>

  <!-- 工具图标 -->
  <path d="M88 45 L92 49 L88 53" stroke="white" stroke-width="2" fill="none" stroke-linecap="round"/>
  <path d="M88 65 L92 69 L88 73" stroke="white" stroke-width="2" fill="none" stroke-linecap="round"/>
</svg>